<?xml version="1.0" encoding="utf-8"?>
<!-- Generator: Adobe Illustrator 27.4.1, SVG Export Plug-In . SVG Version: 6.00 Build 0)  -->
<svg version="1.1" id="Layer_1" xmlns="http://www.w3.org/2000/svg" xmlns:xlink="http://www.w3.org/1999/xlink" x="0px" y="0px"
	 viewBox="0 0 1920 1080" style="enable-background:new 0 0 1920 1080;" xml:space="preserve">
<style type="text/css">
	.st0{fill:#FFFFFF;}
</style>
<g>
	<g>
		<g>
			<g>
				<path class="st0" d="M479.34,562.65c-0.54,11.78,8.97,23.61,19.68,26.77c7.75,2.29,15.25,0.89,22.83-0.91
					c8.02-1.91,16.12-4.94,24.17-4.9c8.51,0.04,17.05,2.95,25.51,4.91c7.59,1.76,15.13,3.37,22.82,0.89
					c14.09-4.54,21.84-18.89,19.33-34.31c-1.83-11.24-7.53-20.58-15.93-28.09c-7.94-7.1-14.24-15.42-20.11-24.22
					c-3.65-5.47-7.31-11.19-12.08-15.59c-8.98-8.28-19.57-10.61-30.93-4.87c-6.32,3.19-10.96,8.13-14.66,13.96
					c-7.65,12.05-16.1,23.3-26.64,33.15C484.53,537.65,479.44,548.27,479.34,562.65z"/>
				<path class="st0" d="M601.74,441.3c-0.07-8.06-1.32-14.37-4.71-20.11c-6.5-11-18.38-13.44-28.73-5.93
					c-15.03,10.9-20.32,35.84-10.97,51.78c5.99,10.21,17.63,13.09,27.46,6.56C596.79,465.6,600.73,453.44,601.74,441.3z"/>
				<path class="st0" d="M445.37,485.87c0.02,14.06,8.54,28.02,20.44,33.49c11.47,5.27,22.94,0.4,27.05-11.5
					c5.33-15.43-3.52-36.19-18.34-42.98c-4.94-2.27-10.13-3.11-15.33-1.33C450.25,466.6,445.35,474.75,445.37,485.87z"/>
				<path d="M479.34,562.65c0.1-14.38,5.19-25,14-33.23c10.54-9.84,18.99-21.1,26.64-33.15c3.7-5.83,8.34-10.77,14.66-13.96
					c11.36-5.74,21.95-3.42,30.93,4.87c4.77,4.4,8.43,10.12,12.08,15.59c5.87,8.8,12.17,17.12,20.11,24.22
					c8.4,7.51,14.09,16.85,15.93,28.09c2.51,15.42-5.24,29.77-19.33,34.31c-7.69,2.48-15.23,0.87-22.82-0.89
					c-8.46-1.96-17-4.87-25.51-4.91c-8.05-0.04-16.15,3-24.17,4.9c-7.58,1.8-15.07,3.2-22.83,0.91
					C488.3,586.25,478.79,574.43,479.34,562.65z"/>
				<path d="M601.74,441.3c-1.01,12.14-4.95,24.3-16.96,32.29c-9.83,6.54-21.47,3.65-27.46-6.56c-9.35-15.93-4.06-40.88,10.97-51.78
					c10.35-7.51,22.23-5.07,28.73,5.93C600.42,426.93,601.67,433.24,601.74,441.3z"/>
				<path d="M445.37,485.87c-0.02-11.13,4.89-19.28,13.82-22.32c5.2-1.77,10.39-0.93,15.33,1.33c14.82,6.79,23.67,27.55,18.34,42.98
					c-4.11,11.9-15.57,16.77-27.05,11.5C453.91,513.89,445.39,499.93,445.37,485.87z"/>
			</g>
			<path class="st0" d="M506.3,473.68c9.83,6.54,21.47,3.65,27.46-6.56c9.35-15.93,4.06-40.88-10.97-51.78
				c-10.35-7.51-22.23-5.07-28.73,5.93c-3.4,5.75-4.64,12.05-4.71,20.11C490.35,453.53,494.29,465.69,506.3,473.68z"/>
			<path d="M489.34,441.39c1.01,12.14,4.95,24.3,16.96,32.29c9.83,6.54,21.47,3.65,27.46-6.56c9.35-15.93,4.06-40.88-10.97-51.78
				c-10.35-7.51-22.23-5.07-28.73,5.93C490.66,427.02,489.41,433.33,489.34,441.39z"/>
			<path class="st0" d="M629.93,463.62c-5.2-1.77-10.39-0.93-15.33,1.33c-14.82,6.79-23.67,27.55-18.34,42.98
				c4.11,11.9,15.57,16.77,27.05,11.5c11.9-5.47,20.42-19.43,20.44-33.49C643.76,474.81,638.86,466.66,629.93,463.62z"/>
			<path d="M643.74,485.94c0.02-11.13-4.89-19.28-13.82-22.32c-5.2-1.77-10.39-0.93-15.33,1.33c-14.82,6.79-23.67,27.55-18.34,42.98
				c4.11,11.9,15.57,16.77,27.05,11.5C635.2,513.96,643.72,500,643.74,485.94z"/>
		</g>
		<g>
			<circle class="st0" cx="546.32" cy="524.37" r="12.46"/>
			<polyline class="st0" points="534.51,557.25 546.32,521.24 558.13,557.25 			"/>
		</g>
	</g>
	<g>
		<path d="M756.37,557.01h-12.75l-30.44-41.03l-8.78,7.7v33.33h-10.83v-85.9h10.83v42.35c2.41-2.73,4.85-5.45,7.34-8.18
			c2.49-2.73,4.97-5.45,7.46-8.18l23.22-25.99h12.63l-34.05,37.42L756.37,557.01z"/>
		<path d="M821.93,557.01l-10.35-26.59h-34.05l-10.23,26.59h-10.95l33.57-86.26h9.75l33.45,86.26H821.93z M808.34,520.8l-9.62-25.99
			c-0.24-0.64-0.64-1.8-1.2-3.49c-0.56-1.68-1.1-3.43-1.62-5.23c-0.52-1.8-0.94-3.19-1.26-4.15c-0.64,2.49-1.3,4.91-1.98,7.28
			c-0.68,2.37-1.26,4.23-1.74,5.59l-9.74,25.99H808.34z"/>
		<path d="M863.68,557.01h-10.83v-76.4h-26.83v-9.5h64.37v9.5h-26.71V557.01z"/>
		<path d="M932.97,557.01h-10.83v-76.4h-26.83v-9.5h64.37v9.5h-26.71V557.01z"/>
		<path d="M1020.68,557.01h-48v-85.9h48v9.5H983.5v26.83h35.01v9.38H983.5v30.68h37.17V557.01z"/>
		<path d="M1107.66,557.01h-12.63l-45.96-71.34h-0.48c0.16,2.81,0.36,6.3,0.6,10.47c0.24,4.17,0.36,8.46,0.36,12.87v48h-9.99v-85.9
			h12.51l45.84,71.1h0.48c-0.08-1.28-0.18-3.21-0.3-5.77c-0.12-2.57-0.24-5.35-0.36-8.36c-0.12-3.01-0.18-5.83-0.18-8.48v-48.48
			h10.11V557.01z"/>
		<path d="M1179.73,534.03c0,7.62-2.77,13.55-8.3,17.81c-5.53,4.25-12.99,6.38-22.38,6.38c-4.81,0-9.26-0.36-13.35-1.08
			c-4.09-0.72-7.5-1.72-10.23-3.01v-10.35c2.89,1.28,6.48,2.45,10.77,3.49c4.29,1.04,8.72,1.56,13.29,1.56
			c6.33,0,11.15-1.24,14.44-3.73c3.29-2.49,4.93-5.85,4.93-10.11c0-2.81-0.6-5.17-1.8-7.1s-3.29-3.69-6.26-5.29
			c-2.97-1.6-7.02-3.37-12.15-5.29c-7.38-2.65-12.92-5.89-16.6-9.74c-3.69-3.85-5.53-9.1-5.53-15.76c0-4.49,1.16-8.38,3.49-11.67
			c2.33-3.29,5.53-5.81,9.62-7.58c4.09-1.76,8.86-2.65,14.32-2.65c4.65,0,8.94,0.44,12.87,1.32c3.93,0.88,7.54,2.05,10.83,3.49
			l-3.37,9.26c-2.97-1.28-6.22-2.36-9.74-3.25c-3.53-0.88-7.14-1.32-10.83-1.32c-5.37,0-9.43,1.14-12.15,3.43
			c-2.73,2.29-4.09,5.31-4.09,9.08c0,2.89,0.6,5.29,1.8,7.22c1.2,1.92,3.17,3.67,5.9,5.23c2.73,1.56,6.42,3.19,11.07,4.87
			c5.05,1.85,9.32,3.83,12.81,5.96c3.49,2.13,6.14,4.67,7.94,7.64C1178.82,525.81,1179.73,529.54,1179.73,534.03z"/>
		<path d="M1288.84,471.11l-30.68,85.9h-10.83l-30.68-85.9h11.31l19.37,55.1c1.28,3.53,2.35,6.84,3.19,9.93
			c0.84,3.09,1.58,6.04,2.23,8.84c0.56-2.81,1.28-5.77,2.17-8.9c0.88-3.13,1.96-6.5,3.25-10.11l19.25-54.86H1288.84z"/>
		<path d="M1348.52,557.01h-48v-85.9h48v9.5h-37.17v26.83h35.01v9.38h-35.01v30.68h37.17V557.01z"/>
		<path d="M1391.11,471.11c10.67,0,18.55,2.03,23.64,6.08c5.09,4.05,7.64,10.17,7.64,18.35c0,4.57-0.84,8.38-2.53,11.43
			c-1.68,3.05-3.83,5.49-6.44,7.34c-2.61,1.85-5.35,3.25-8.24,4.21l23.58,38.5h-12.63l-20.81-35.49h-17.08v35.49h-10.83v-85.9
			H1391.11z M1390.5,480.5h-12.27v31.88h12.87c6.98,0,12.07-1.38,15.28-4.15c3.21-2.77,4.81-6.84,4.81-12.21
			c0-5.61-1.68-9.6-5.05-11.97C1402.78,481.68,1397.56,480.5,1390.5,480.5z"/>
		<path d="M1510.33,557.01h-12.63l-45.96-71.34h-0.48c0.16,2.81,0.36,6.3,0.6,10.47c0.24,4.17,0.36,8.46,0.36,12.87v48h-9.99v-85.9
			h12.51l45.84,71.1h0.48c-0.08-1.28-0.18-3.21-0.3-5.77c-0.12-2.57-0.24-5.35-0.36-8.36c-0.12-3.01-0.18-5.83-0.18-8.48v-48.48
			h10.11V557.01z"/>
	</g>
</g>
<g>
</g>
<g>
</g>
<g>
</g>
<g>
</g>
<g>
</g>
<g>
</g>
<g>
</g>
<g>
</g>
<g>
</g>
<g>
</g>
<g>
</g>
<g>
</g>
<g>
</g>
<g>
</g>
<g>
</g>
</svg>
